# xmcd
#
# Track frame offsets: 
#        150
#        12798
#        26545
#        40743
#        47841
#        60591
#        73808
#        87088
#        96615
#        111615
#        125865
#        142460
#        155454
#        164512
#        193042
#        207439
#        219249
#        227860
#        241617
#        255269
#        267921
#
# Disc length: 3742 seconds
#
# Revision: 1
# Processed by: cddbd v1.5.2PL0 Copyright (c) Steve Scherf et al.
# Submitted via: ExactAudioCopy v1.0b3
#
DISCID=380e9c15
DTITLE=Various Artist - JAZZ VOCAL The Best Of Best [CD3]
DYEAR=2010
DGENRE=Jazz
TTITLE0=Sarah Vaughan - What A Difference A Day Makes
TTITLE1=Billie Holiday - All Of Me
TTITLE2=Don Rennie - I'll Close My Eyes
TTITLE3=Peggy Lee - I Feel A Song Coming On
TTITLE4=Chet Baker - The Thrill Is Gone
TTITLE5=Ella Fitzgerald - This Love Of Mine
TTITLE6=Nat King Cole - It's Only A Paper Moon
TTITLE7=Peggy Lee - Let There Be Love
TTITLE8=Chet Baker - I Fall In Love Too Easily
TTITLE9=Ella Fitzgerald - Time Alone Will Tell
TTITLE10=Frank Sinatra - All The Way
TTITLE11=Lena Horne - Love Me Or Leave Me
TTITLE12=Frank Sinatra - Chicago
TTITLE13=Ella Fitzgerald - April In Paris
TTITLE14=Bing Crosby - Moonlight Becomes You
TTITLE15=Peggy Lee - I'm Beginning To See The Light
TTITLE16=Nat King Cole - It's Almost Like Being In Love
TTITLE17=Billie Holiday - Easy Living
TTITLE18=Ella Fitzgerald - My Melancholy Baby
TTITLE19=Cab Calloway - The Jumping Jive
TTITLE20=Dinah Washington - Ain't Misbehavin'
EXTD=YEAR: 2010
EXTT0=
EXTT1=
EXTT2=
EXTT3=
EXTT4=
EXTT5=
EXTT6=
EXTT7=
EXTT8=
EXTT9=
EXTT10=
EXTT11=
EXTT12=
EXTT13=
EXTT14=
EXTT15=
EXTT16=
EXTT17=
EXTT18=
EXTT19=
EXTT20=
PLAYORDER=
